<?xml version="1.0" encoding="UTF-8"?>
<svg xmlns="http://www.w3.org/2000/svg" viewBox="0 0 539.1 571.14">
  <defs>
    <style>
      .cls-1 {
        fill: #00346d;
      }

      .cls-1, .cls-2, .cls-3 {
        stroke-width: 0px;
      }

      .cls-2 {
        fill: #00bdff;
      }

      .cls-3 {
        fill: #00f7df;
      }
    </style>
  </defs>
  <g id="_Слой_2" data-name="Слой 2">
    <path class="cls-1" d="m385.32,193.32v-30.11c0-5.16-2.72-9.95-7.15-12.59l-110.84-66.09c-4.57-2.72-10.26-2.76-14.86-.09L7.3,226.6c-4.52,2.62-7.3,7.45-7.3,12.68v218.16c0,5.19,2.75,10,7.22,12.63l168.21,99.03c4.54,2.67,10.16,2.7,14.73.08l24.39-13.99c9.79-5.61,9.83-19.72.07-25.39l-155.86-90.59c-4.54-2.64-7.32-7.5-7.29-12.74l.71-152.44c.02-5.2,2.8-10,7.3-12.61l194.49-112.87c4.64-2.69,10.38-2.64,14.96.15l94.12,57.13c9.77,5.93,22.26-1.1,22.26-12.53Z"/>
  </g>
  <g id="_Слой_4" data-name="Слой 4">
    <path class="cls-2" d="m299.03,467.86l26.03,15.14c4.46,2.6,9.96,2.65,14.48.15l112.85-62.6c4.65-2.58,7.54-7.48,7.55-12.8l.34-283.4c0-5.23-2.77-10.06-7.29-12.69L264.38,1.99c-4.49-2.61-10.02-2.65-14.55-.11L79.67,97.51c-4.59,2.58-7.45,7.42-7.48,12.69l-.17,28.12c-.07,11.28,12.11,18.41,21.91,12.83L250.59,61.94c4.56-2.6,10.16-2.56,14.68.1l131.43,77.25c4.48,2.64,7.24,7.45,7.23,12.65l-.19,224.87c0,5.36-2.94,10.3-7.65,12.86l-96.7,52.65c-10.04,5.46-10.24,19.8-.36,25.55Z"/>
  </g>
  <g id="_Слой_5" data-name="Слой 5">
    <path class="cls-3" d="m108.7,257.66l-26.12,14.99c-4.48,2.57-7.27,7.31-7.36,12.47l-2.16,129.03c-.09,5.32,2.71,10.27,7.32,12.93l245.33,141.88c4.52,2.62,10.1,2.63,14.63.02l189.22-108.58c4.5-2.58,7.3-7.36,7.36-12.55l2.17-195.18c.06-5.27-2.71-10.16-7.26-12.82l-24.27-14.19c-9.74-5.7-21.99,1.29-22.06,12.57l-.99,180.27c-.03,5.25-2.86,10.08-7.42,12.67l-132.57,75.26c-4.52,2.57-10.07,2.55-14.57-.06l-194.7-112.51c-4.64-2.68-7.45-7.69-7.32-13.05l2.71-110.07c.28-11.42-12.04-18.76-21.95-13.07Z"/>
  </g>
  <g id="_Слой_3" data-name="Слой 3">
    <path class="cls-1" d="m265.28,268.98h-32.57c-2.96,0-4.45-3.58-2.35-5.68l5.92-5.92c.62-.62,1.46-.97,2.34-.98l48.75-.15c.88,0,1.72-.35,2.35-.97l19.76-19.77c2.1-2.1.61-5.68-2.35-5.68h-81.82c-.89,0-1.73.35-2.36.98l-58.25,58.25c-2.1,2.1-.62,5.68,2.35,5.68h80.15c1.84,0,4.16,1.61,4.16,3.45v15.89c0,2.97-4.41,4.51-6.51,2.42l-6.81-6.81c-.63-.63-1.47-.98-2.35-.98h-29.58c-2.97,0-4.45,3.59-2.35,5.68,0,0,44.26,26.28,47.95,66.52.19,2.07,20.29,1.73,20.29,1.73,2.1,2.09,5.68.61,5.68-2.35v-105.99l-1.64-1.39s-.04-.03-.06-.05l-10.7-3.89Z"/>
    <path class="cls-1" d="m333.51,321.53c-1.23.32-2.4.91-3.44,1.77l-13.09,10.96c-1.56,1.31-3.59,1.96-5.62,1.96s-4.06-.65-5.63-1.96l-13.1-10.96c-1.03-.86-2.2-1.45-3.43-1.77-5.16-1.41-11.17,1.73-11.17,6.97l-2.1,44.76c0,1.75-3.04,0-5.11,0l-11.49-8.17c-2.06,0-7.63-8.46-7.63-10.21v-84.99c0-.31.02-.61.07-.91h13.5c3.94,0,7.75,1.4,10.76,3.94l1.64,1.39,33.67,28.48,15.79,13.35,6.37,5.39Z"/>
    <path class="cls-1" d="m371,269.89v110.72c0,1.67-1.35,3.02-3.02,3.02h-19.31c-2.21,0-4.01-1.79-4.01-4.01v-51.11c0-5.25-6.01-8.39-11.16-6.97-1.23.32-2.4.9-3.43,1.77l-13.09,10.95h0c-3.09,2.59-8.15,2.59-11.25,0h0s-13.09-10.96-13.09-10.96c-1.03-.87-2.2-1.45-3.43-1.77l6.37-5.39,15.78-13.36,45.02-38.08c5.42-4.58,14.63-1.31,14.63,5.18Z"/>
    <path class="cls-1" d="m277.69,349.84v30.77c0,1.67-1.35,3.02-3.02,3.02h-19.31c-2.21,0-4.01-1.79-4.01-4.01v-29.02"/>
  </g>
</svg>